<svg xmlns="http://www.w3.org/2000/svg" xmlns:xlink="http://www.w3.org/1999/xlink" xmlns:lucid="lucid" width="216" height="213"><g transform="translate(-402 -1002)" lucid:page-tab-id="xRWrwWfbD58Y"><path d="M400 1000h220v220H400z" stroke="#000" stroke-opacity="0" stroke-width="2" fill="#4fb0c6"/><path d="M420 1000h180v220H420z" stroke="#000" stroke-opacity="0" stroke-width="2" fill="#fff" fill-opacity="0"/><use xlink:href="#a" transform="matrix(1,0,0,1,425,1005) translate(26.328125 149.53125)"/><defs><path fill="#fff" d="M370-732c27 199-27 392-9 587 75-195 159-379 249-558 22-27 94-60 127-26-2 168-66 339-91 501-18 109-60 231-23 339 12 26 33 47 73 43-41 35-136 51-172 2-54-77-1-196 16-288 31-169 88-341 120-506-87 171-177 347-242 539-13 42-19 61-12 103-23 22-81 65-103 14-68-161 0-425-1-608-1-11-3-21-4-30-69 218-109 474-174 698-15 51-41 106-101 109-174 7-136-270-71-367 15-27 35-54 60-80 44 5 16 50 3 72C-23-112-54 5-13 98c13 23 27-3 32-14 73-148 84-346 141-513 32-93 60-187 98-279 20-21 69-40 104-34 4 3 7 6 8 10" id="b"/><use transform="matrix(0.15625,0,0,0.15625,0,0)" xlink:href="#b" id="a"/></defs></g></svg>